<svg id="Layer_1" data-name="Layer 1" xmlns="http://www.w3.org/2000/svg" viewBox="0 0 75 75"><defs><style>.cls-1{fill:#231f20;}</style></defs><title>logo</title><path class="cls-1" d="M31.58,18.41v6.13H22.16V56.59H15.71V24.54H6.5V18.41H31.58Z"/><path class="cls-1" d="M60.54,56.59q-1.83-2.25-3.4-4.35L54,48.08l-3.17-4.19q-1.6-2.12-3.38-4.43-0.58.63-1.1,1.13l-1.1,1v15H38.18V18.41h7.07V32.13a8.52,8.52,0,0,1-.05.89L45.09,34a5.06,5.06,0,0,1,.55-0.65,3.93,3.93,0,0,0,.55-0.71q3.56-3.4,6.84-7.07t6.83-7.12H68q-3.93,4.14-7.8,8.38t-7.75,8.33q2.2,2.83,4.16,5.5t3.9,5.26l3.9,5.24q2,2.64,4.11,5.47h-8Z"/></svg>